# xmcd
#
# Track frame offsets: 
#        182
#        14075
#        28362
#        42512
#        56250
#        70112
#        83200
#        93737
#        108350
#        119462
#        133025
#        145987
#        158800
#        171850
#        185000
#        194687
#        207762
#        219525
#        233200
#        245650
#        256925
#        266275
#
# Disc length: 3701 seconds
#
# Revision: 2
# Processed by: cddbd v1.5.1PL0 Copyright (c) Steve Scherf et al.
# Submitted via: ExactAudioCopy v0.90b4
#
DISCID=4e0e7316
DTITLE=T-Bone Walker - I Got The Blues 1951-1954 [Opal]
DYEAR=1995
DGENRE=Blues
TTITLE0=Blues Is A woman
TTITLE1=Cold, Cold Feeling
TTITLE2=Through With Women
TTITLE3=Get These Blues Off Me
TTITLE4=Street Walking Woman
TTITLE5=I Got The Blues
TTITLE6=News For My Baby
TTITLE7=I Got The Blues Again
TTITLE8=Everytime
TTITLE9=Here In The Dark
TTITLE10=I Miss You Baby
TTITLE11=Blue Mood
TTITLE12=Love Is Just A Gamble
TTITLE13=Lollie Lou
TTITLE14=Party Girl
TTITLE15=High Society
TTITLE16=My Baby Is Now On My Mind
TTITLE17=Doin' Time
TTITLE18=Bye, Bye, Baby
TTITLE19=Wanderin' Heart
TTITLE20=I´ll Understand
TTITLE21=Strugglin' Blues
EXTD=
EXTT0=
EXTT1=
EXTT2=
EXTT3=
EXTT4=
EXTT5=
EXTT6=
EXTT7=
EXTT8=
EXTT9=
EXTT10=
EXTT11=
EXTT12=
EXTT13=
EXTT14=
EXTT15=
EXTT16=
EXTT17=
EXTT18=
EXTT19=
EXTT20=
EXTT21=
PLAYORDER=
